<?xml version="1.0" encoding="UTF-8" standalone="no"?>
<!DOCTYPE svg PUBLIC "-//W3C//DTD SVG 1.1//EN" "http://www.w3.org/Graphics/SVG/1.1/DTD/svg11.dtd">
<svg width="100%" height="100%" viewBox="0 0 1566 1566" version="1.1" xmlns="http://www.w3.org/2000/svg" xmlns:xlink="http://www.w3.org/1999/xlink" xml:space="preserve" xmlns:serif="http://www.serif.com/" style="fill-rule:evenodd;clip-rule:evenodd;stroke-linejoin:round;stroke-miterlimit:2;">
    <g transform="matrix(1,0,0,1,-9.26018,-9.26018)">
        <g transform="matrix(1,0,0,1,-853.212,-884.833)">
            <path d="M1645.24,894.093C2077.27,894.093 2428.01,1244.84 2428.01,1676.86C2428.01,2108.89 2077.27,2459.64 1645.24,2459.64C1213.22,2459.64 862.472,2108.89 862.472,1676.86C862.472,1244.84 1213.22,894.093 1645.24,894.093ZM1645.24,1020.35C2007.58,1020.35 2301.76,1314.53 2301.76,1676.86C2301.76,2039.2 2007.58,2333.38 1645.24,2333.38C1282.9,2333.38 988.732,2039.2 988.732,1676.86C988.732,1314.53 1282.9,1020.35 1645.24,1020.35Z"/>
        </g>
    </g>
</svg>
