<?xml version="1.0" encoding="UTF-8" standalone="no"?>
<!DOCTYPE svg PUBLIC "-//W3C//DTD SVG 1.1//EN" "http://www.w3.org/Graphics/SVG/1.1/DTD/svg11.dtd">
<svg width="100%" height="100%" viewBox="0 0 1454 1586" version="1.1" xmlns="http://www.w3.org/2000/svg" xmlns:xlink="http://www.w3.org/1999/xlink" xml:space="preserve" xmlns:serif="http://www.serif.com/" style="fill-rule:evenodd;clip-rule:evenodd;stroke-linejoin:round;stroke-miterlimit:2;">
    <g transform="matrix(1,0,0,1,-1695.61,-1563.62)">
        <g transform="matrix(1,0,0,1,389.124,172.358)">
            <path d="M1306.48,2977.25L1919.89,2150.72L1378.97,1391.27L1628.87,1391.27L1916.64,1798.04C1976.51,1882.42 2019.06,1947.33 2044.3,1992.77C2079.64,1935.07 2121.47,1874.85 2169.8,1812.1L2488.94,1391.27L2717.21,1391.27L2160.06,2138.82L2760.48,2977.25L2500.84,2977.25L2101.64,2411.44C2079.28,2378.99 2056.2,2343.65 2032.4,2305.42C1997.06,2363.12 1971.82,2402.79 1956.67,2424.43L1558.55,2977.25L1306.48,2977.25Z" style="fill-rule:nonzero;"/>
        </g>
    </g>
</svg>
